# xmcd
#
# Track frame offsets:
#	150
#	17569
#	38757
#	54461
#	74223
#	90413
#	107534
#	121781
#	135236
#	153399
#	168800
#	183991
#	206666
#	222754
#	240269
#
# Disc length: 3446
#
# Revision: 1
# Processed by: cddbd v1.5.1PL0 Copyright (c) Steve Scherf et al.
# Submitted via: dBpowerAMP V4.0
# Normalized: r0:TRMNUM
#
DISCID=ba0d740f
DTITLE=Patricia Kaas -  Sexe Fort
DYEAR=1900
DGENRE=
TTITLE0=Où sont les hommes
TTITLE1=L'abbé Caillou
TTITLE2=Je ne veux plus te pardonner
TTITLE3=La nuit est mauve
TTITLE4=C'est les femmes qui mènent la danse
TTITLE5=On pourrait
TTITLE6=J'en tremblerai encore
TTITLE7=Je t'aime, je ne t'aime plus
TTITLE8=C'est la faute à la vie
TTITLE9=Je le garde pour toi
TTITLE10=Ma blessure
TTITLE11=Des regrets
TTITLE12=Tu pourras dire
TTITLE13=Peut-être que peut-être
TTITLE14=Une question de temps
EXTD=
EXTT0=
EXTT1=
EXTT2=
EXTT3=
EXTT4=
EXTT5=
EXTT6=
EXTT7=
EXTT8=
EXTT9=
EXTT10=
EXTT11=
EXTT12=
EXTT13=
EXTT14=
PLAYORDER=
